<?xml version="1.0"?>
<svg xmlns="http://www.w3.org/2000/svg" xmlns:xlink="http://www.w3.org/1999/xlink" version="1.1" id="Capa_1" x="0px" y="0px" viewBox="0 0 515.568 515.568" style="enable-background:new 0 0 515.568 515.568;" xml:space="preserve" width="512px" height="512px"><g><g>
	<g>
		<path d="M482.851,6.409L333.517,91.742l21.333,36.267l81.067-46.933l-46.933,81.067l36.267,21.333l87.467-147.2    C523.384,17.076,502.051-4.258,482.851,6.409z" data-original="#000000" class="active-path" fill="#000000"/>
	</g>
</g><g>
	<g>
		<path d="M182.05,89.609L32.717,4.276C13.517-6.391-7.816,14.942,2.851,34.142l85.333,149.333l38.4-21.333L79.651,81.076    l81.067,44.8L182.05,89.609z" data-original="#000000" class="active-path" fill="#000000"/>
	</g>
</g><g>
	<g>
		<path d="M158.584,388.276l-81.067,46.933l46.933-81.067l-36.267-21.333L2.851,482.142c-6.4,14.933,2.133,32,19.2,32    c4.267,0,8.533-2.133,8.533-4.267l149.333-85.333L158.584,388.276z" data-original="#000000" class="active-path" fill="#000000"/>
	</g>
</g><g>
	<g>
		<path d="M506.317,484.276l-83.2-149.333l-36.267,21.333l46.933,81.067l-81.067-46.933l-21.333,36.267c0,0,110.933,64,147.2,85.333    c4.267,2.133,6.4,2.133,10.667,2.133C506.317,514.142,516.984,494.942,506.317,484.276z" data-original="#000000" class="active-path" fill="#000000"/>
	</g>
</g><g>
	<g>
		<path d="M497.784,236.809l-172.8-46.933l-46.933-172.8c-6.4-19.2-34.133-19.2-40.533,0l-49.067,172.8l-172.8,46.933    c-19.2,6.4-19.2,34.133,0,40.533l172.8,46.933l46.933,172.8c6.4,19.2,34.133,19.2,40.533,0l46.933-172.8l172.8-46.933    C514.851,270.942,514.851,245.342,497.784,236.809z M256.717,300.809c-23.467,0-42.667-19.2-42.667-42.667    s19.2-42.667,42.667-42.667s42.667,19.2,42.667,42.667S280.184,300.809,256.717,300.809z" data-original="#000000" class="active-path" fill="#000000"/>
	</g>
</g></g> </svg>
