<svg height="512pt" viewBox="-13 0 511 512" width="512pt" xmlns="http://www.w3.org/2000/svg"><path d="m305.421875 75.800781h30c0 16.171875-6.121094 30.695313-10.589844 41.171875-.542969 1.246094-1.144531 2.648438-1.714843 4.027344h100.789062c-7.574219-67.316406-64.175781-121-133.484375-121s-125.910156 53.683594-133.484375 121h43.484375c35.242187 0 105-27.550781 105-45.199219zm0 0"/><path d="m290.421875 369.789062 38.789063-38.789062h-77.578126zm0 0"/><path d="m107.898438 364.6875 146.3125 147.3125h42.421874l-167.527343-168.527344c-8.421875 5.578125-15.628907 12.792969-21.207031 21.214844zm0 0"/><path d="m410.421875 331h-38.789063l-81.210937 81.210938-81.210937-81.210938h-38.789063c-3.539063 0-6.917969.566406-10.324219 1.042969l178.957032 179.957031h146.367187v-106c0-41.421875-33.578125-75-75-75zm0 0"/><path d="m95.421875 406v106h116.367187l-115.324218-116.324219c-.476563 3.402344-1.039063 6.785157-1.042969 10.324219zm0 0"/><path d="m135.488281 307.433594-71.355469-71.355469-63.632812 63.632813 71.359375 71.359374c10.570313-29.703124 33.9375-53.066406 63.628906-63.636718zm0 0"/><path d="m290.421875 301c75.761719 0 135-62.101562 135-135v-15h-105c-4.6875 0-18.984375 0-26.160156-10.882812-2.816407-4.25-3.75-8.671876-3.5625-13.183594-31.582031 15.777344-71.511719 24.066406-90.277344 24.066406h-45v15c0 74.441406 60.558594 135 135 135zm-31.785156-103.199219c16.992187 17.023438 46.582031 17.023438 63.574219 0l21.238281 21.210938c-14.164063 14.179687-33.003907 21.988281-53.027344 21.988281s-38.863281-7.808594-53.027344-21.988281zm0 0"/></svg>